# xmcd CD database file
#
# Track frame offsets:
#	150
#	15430
#	36847
#	49162
#	59725
#	77477
#	90097
#	102122
#	113597
#	134797
#	153980
#
# Disc length: 2254 seconds
#
# Revision: 2
# Processed by: cddbd v1.4PL0 Copyright (c) Steve Scherf et al.
# Submitted via: CDex 1.40Beta9
#
DISCID=8008cc0b
DTITLE=Shakannaha Blues Band - Frustami
DYEAR=2000
DGENRE=Blues
TTITLE0=Frustami
TTITLE1=Hoochie Coochie Man
TTITLE2=Ever Sing The Rain
TTITLE3=Shake Rattle And Roll
TTITLE4=Stand By Me
TTITLE5=The Dock Of The Baby
TTITLE6=Hound Dog
TTITLE7=Whole Lotta Shaking Going On
TTITLE8=Rock Me Baby
TTITLE9=Wonderful Tonight
TTITLE10=Frustami (Strumentale)
EXTD=YEAR: 2000 ID3G: 0
EXTT0=
EXTT1=
EXTT2=
EXTT3=
EXTT4=
EXTT5=
EXTT6=
EXTT7=
EXTT8=
EXTT9=
EXTT10=
PLAYORDER=
